<svg viewBox="0 0 30 26.4683" xmlns="http://www.w3.org/2000/svg" xmlns:xlink="http://www.w3.org/1999/xlink" width="30.000000" height="26.468262" fill="none" customFrame="#000000">
	<path id="Vector" d="M26.6745 26.4679L3.32547 26.4679C1.49193 26.4679 0 24.9762 0 23.1424L0 3.32498C0 1.49144 1.49193 -0.000488281 3.32547 -0.000488281L26.6745 -0.000488281C28.5081 -0.000488281 30 1.49144 30 3.32498L30 23.1424C30 24.9762 28.5081 26.4679 26.6745 26.4679ZM3.32547 0.990078C2.03807 0.990078 0.990566 2.03758 0.990566 3.32498L0.990566 23.1424C0.990566 24.4298 2.03807 25.4773 3.32547 25.4773L26.6745 25.4773C27.9619 25.4773 29.0094 24.4298 29.0094 23.1424L29.0094 3.32498C29.0094 2.03758 27.9619 0.990078 26.6745 0.990078L3.32547 0.990078Z" fill="rgb(73,133,255)" fill-rule="nonzero" />
</svg>
